<?xml version="1.0" encoding="UTF-8" standalone="no"?>
<!-- Created with Inkscape (http://www.inkscape.org/) -->

<svg
   width="39.514984mm"
   height="31.502316mm"
   viewBox="0 0 39.514984 31.502316"
   version="1.1"
   id="svg1"
   inkscape:export-filename="../src/assets/book.png"
   inkscape:export-xdpi="96"
   inkscape:export-ydpi="96"
   inkscape:version="1.4 (e7c3feb100, 2024-10-09)"
   sodipodi:docname="book-icon.svg"
   xmlns:inkscape="http://www.inkscape.org/namespaces/inkscape"
   xmlns:sodipodi="http://sodipodi.sourceforge.net/DTD/sodipodi-0.dtd"
   xmlns="http://www.w3.org/2000/svg"
   xmlns:svg="http://www.w3.org/2000/svg">
  <sodipodi:namedview
     id="namedview1"
     pagecolor="#005ca8"
     bordercolor="#000000"
     borderopacity="0.25"
     inkscape:showpageshadow="2"
     inkscape:pageopacity="0.0"
     inkscape:pagecheckerboard="0"
     inkscape:deskcolor="#d1d1d1"
     inkscape:document-units="mm"
     inkscape:export-bgcolor="#ffffff00"
     inkscape:zoom="3.8698653"
     inkscape:cx="62.146866"
     inkscape:cy="117.83356"
     inkscape:window-width="1720"
     inkscape:window-height="1355"
     inkscape:window-x="1720"
     inkscape:window-y="48"
     inkscape:window-maximized="0"
     inkscape:current-layer="layer1" />
  <defs
     id="defs1" />
  <g
     inkscape:label="Layer 1"
     inkscape:groupmode="layer"
     id="layer1"
     transform="translate(-90.940274,-103.90891)">
    <path
       id="path2"
       d="m 110.82536,109.47042 c 0,0 -2.68206,-6.41103 -12.516024,-5.38657 v 22.23982 c 0,0 7.152004,-1.13842 12.516024,1.5427 z"
       style="fill:none;stroke:#ffffff;stroke-width:0.656175;stroke-linecap:round;stroke-linejoin:round;stroke-miterlimit:10;stroke-dasharray:none;stroke-opacity:1" />
    <path
       id="path3"
       d="m 97.415256,106.50426 c 0,0 -1.149562,-1.16522 -2.043642,-1.21073 v 24.40587 c 0,0 6.449906,-2.63984 12.899566,0"
       style="fill:none;stroke:#ffffff;stroke-width:0.656175;stroke-linecap:round;stroke-linejoin:round;stroke-miterlimit:10;stroke-dasharray:none;stroke-opacity:1" />
    <path
       id="path4"
       d="m 93.244364,107.80989 h -1.106981 c -0.661052,0 -1.197109,0.53587 -1.197109,1.19733 v 22.84765 c 0,0.66111 0.536057,1.19698 1.197109,1.19698 h 16.016637 c 0,0 0.9488,2.35937 2.71089,2.35937 1.76184,0 2.71074,-2.1971 2.71074,-2.1971 h 15.68193 c 0.66146,0 1.19768,-0.53586 1.19768,-1.19697 v -23.00993 c 0,-0.66146 -0.53622,-1.19733 -1.19768,-1.19733 h -0.94016 v 21.91561 c 0,0.61596 -0.49918,1.11513 -1.11477,1.11513 h -12.513 c -0.61072,0 -1.14405,0.38171 -1.37763,0.9458 -0.32039,0.774 -1.0087,1.74131 -2.44711,1.74131 -1.30433,0 -2.03218,-1.02799 -2.3978,-1.81257 -0.24832,-0.53269 -0.77787,-0.87454 -1.36521,-0.87454 H 94.262023 c -0.61775,0 -1.117565,-0.50235 -1.114814,-1.11971 l 0.09716,-21.91103"
       style="fill:#ffffff;fill-opacity:1;fill-rule:nonzero;stroke:none;stroke-width:0.0352777" />
    <path
       id="path5"
       d="m 101.50705,108.89504 c 0,0 4.59261,-0.34185 7.33147,2.49625"
       style="fill:none;stroke:#ffffff;stroke-width:0.656175;stroke-linecap:round;stroke-linejoin:round;stroke-miterlimit:10;stroke-dasharray:none;stroke-opacity:1" />
    <path
       id="path6"
       d="m 101.50705,111.09849 c 0,0 4.59261,-0.37889 7.33147,2.49555"
       style="fill:none;stroke:#ffffff;stroke-width:0.656175;stroke-linecap:round;stroke-linejoin:round;stroke-miterlimit:10;stroke-dasharray:none;stroke-opacity:1" />
    <path
       id="path7"
       d="m 101.50705,113.424 c 0,0 4.25842,-0.3422 7.33147,2.4959"
       style="fill:none;stroke:#ffffff;stroke-width:0.656175;stroke-linecap:round;stroke-linejoin:round;stroke-miterlimit:10;stroke-dasharray:none;stroke-opacity:1" />
    <path
       id="path8"
       d="m 101.50705,115.62674 c 0,0 3.82299,-0.75918 7.33147,2.4959"
       style="fill:none;stroke:#ffffff;stroke-width:0.656175;stroke-linecap:round;stroke-linejoin:round;stroke-miterlimit:10;stroke-dasharray:none;stroke-opacity:1" />
    <path
       id="path9"
       d="m 101.50705,117.95084 c 0,0 4.12518,-0.63006 7.33147,2.4959"
       style="fill:none;stroke:#ffffff;stroke-width:0.656175;stroke-linecap:round;stroke-linejoin:round;stroke-miterlimit:10;stroke-dasharray:none;stroke-opacity:1" />
    <path
       id="path10"
       d="m 101.50705,120.15394 c 0,0 4.32527,-0.70838 7.33147,2.4959"
       style="fill:none;stroke:#ffffff;stroke-width:0.656175;stroke-linecap:round;stroke-linejoin:round;stroke-miterlimit:10;stroke-dasharray:none;stroke-opacity:1" />
    <path
       id="path11"
       d="m 110.82536,109.47042 c 0,0 2.68235,-6.41103 12.51631,-5.38657 v 22.23982 c 0,0 -7.15201,-1.13842 -12.51631,1.5427 z"
       style="fill:none;stroke:#ffffff;stroke-width:0.656175;stroke-linecap:round;stroke-linejoin:round;stroke-miterlimit:10;stroke-dasharray:none;stroke-opacity:1" />
    <path
       id="path12"
       d="m 124.23579,106.50426 c 0,0 1.1497,-1.16522 2.04364,-1.21073 v 24.40587 c 0,0 -6.44998,-2.63984 -12.8996,0"
       style="fill:none;stroke:#ffffff;stroke-width:0.656175;stroke-linecap:round;stroke-linejoin:round;stroke-miterlimit:10;stroke-dasharray:none;stroke-opacity:1" />
    <path
       id="path13"
       d="m 120.14392,108.89504 c 0,0 -4.59257,-0.34185 -7.33143,2.49625"
       style="fill:none;stroke:#ffffff;stroke-width:0.656175;stroke-linecap:round;stroke-linejoin:round;stroke-miterlimit:10;stroke-dasharray:none;stroke-opacity:1" />
    <path
       id="path14"
       d="m 120.14392,111.09849 c 0,0 -4.59257,-0.37889 -7.33143,2.49555"
       style="fill:none;stroke:#ffffff;stroke-width:0.656175;stroke-linecap:round;stroke-linejoin:round;stroke-miterlimit:10;stroke-dasharray:none;stroke-opacity:1" />
    <path
       id="path15"
       d="m 120.14392,113.424 c 0,0 -4.25838,-0.3422 -7.33143,2.4959"
       style="fill:none;stroke:#ffffff;stroke-width:0.656175;stroke-linecap:round;stroke-linejoin:round;stroke-miterlimit:10;stroke-dasharray:none;stroke-opacity:1" />
    <path
       id="path16"
       d="m 120.14392,115.62674 c 0,0 -3.82295,-0.75918 -7.33143,2.4959"
       style="fill:none;stroke:#ffffff;stroke-width:0.656175;stroke-linecap:round;stroke-linejoin:round;stroke-miterlimit:10;stroke-dasharray:none;stroke-opacity:1" />
    <path
       id="path17"
       d="m 120.14392,117.95084 c 0,0 -4.12514,-0.63006 -7.33143,2.4959"
       style="fill:none;stroke:#ffffff;stroke-width:0.656175;stroke-linecap:round;stroke-linejoin:round;stroke-miterlimit:10;stroke-dasharray:none;stroke-opacity:1" />
    <path
       id="path18"
       d="m 120.14392,120.15394 c 0,0 -4.32524,-0.70838 -7.33143,2.4959"
       style="fill:none;stroke:#ffffff;stroke-width:0.656175;stroke-linecap:round;stroke-linejoin:round;stroke-miterlimit:10;stroke-dasharray:none;stroke-opacity:1" />
    <path
       id="path19"
       d="m 113.08423,106.18394 v 4.47992 l 1.34772,1.21285 2.04639,-3.02436 v -4.58117 l -0.11423,-0.0875 c -0.38184,-0.2921 -0.87245,-0.35631 -1.30651,-0.16863 -0.31902,0.13829 -0.71106,0.33302 -1.10821,0.59373 -0.35416,0.23248 -0.61571,0.60254 -0.72694,1.0361 l -0.13822,0.53905"
       style="fill:#ffffff;fill-opacity:1;fill-rule:nonzero;stroke:none;stroke-width:0.0352777" />
  </g>
</svg>
